<svg width="43" height="31" viewBox="0 0 43 31" fill="none" xmlns="http://www.w3.org/2000/svg">
<path fill-rule="evenodd" clip-rule="evenodd" d="M5.33328 0.083374H13.1665V9.31416L0.333282 9.31416V5.08337C0.333282 2.32195 2.57186 0.083374 5.33328 0.083374ZM0.333282 11.6218L13.1665 11.6218V18.5449H0.333282V11.6218ZM0.333282 20.8526V25.0834C0.333282 27.8448 2.57186 30.0834 5.33328 30.0834H13.1665V20.8526H0.333282ZM27.1666 30.0834H15.4999V0.083374H37.3333C40.0947 0.083374 42.3333 2.32195 42.3333 5.08337V9.31416L29.5 9.31416L27.75 9.31415L27.1666 9.31416V30.0834ZM29.5 11.6218L42.3333 11.6218V18.5449H29.5V11.6218ZM29.5 20.8526V30.0834H37.3333C40.0947 30.0834 42.3333 27.8448 42.3333 25.0834V20.8526H29.5Z" fill="#DFDEDE"/>
<path fill-rule="evenodd" clip-rule="evenodd" d="M5.33328 0.083374H13.1665V9.31416L0.333282 9.31416V5.08337C0.333282 2.32195 2.57186 0.083374 5.33328 0.083374ZM0.333282 11.6218L13.1665 11.6218V18.5449H0.333282V11.6218ZM0.333282 20.8526V25.0834C0.333282 27.8448 2.57186 30.0834 5.33328 30.0834H13.1665V20.8526H0.333282ZM27.1666 30.0834H15.4999V0.083374H37.3333C40.0947 0.083374 42.3333 2.32195 42.3333 5.08337V9.31416L29.5 9.31416L27.75 9.31415L27.1666 9.31416V30.0834ZM29.5 11.6218L42.3333 11.6218V18.5449H29.5V11.6218ZM29.5 20.8526V30.0834H37.3333C40.0947 30.0834 42.3333 27.8448 42.3333 25.0834V20.8526H29.5Z" fill="url(#paint0_linear_0_322)"/>
<defs>
<linearGradient id="paint0_linear_0_322" x1="21.3333" y1="0.083374" x2="21.3333" y2="30.0834" gradientUnits="userSpaceOnUse">
<stop stop-color="white"/>
<stop offset="1" stop-color="white" stop-opacity="0"/>
</linearGradient>
</defs>
</svg>
