<svg width="76" height="25" viewBox="0 0 76 25" fill="none" xmlns="http://www.w3.org/2000/svg">
<path d="M33.1192 24.1527H27.0369L30.8412 0.839355H36.9232L33.1192 24.1527Z" fill="white"/>
<path d="M55.1679 1.40923C53.9682 0.937515 52.0654 0.416687 49.7126 0.416687C43.7061 0.416687 39.4764 3.5911 39.4505 8.12955C39.4006 11.478 42.4788 13.3378 44.7811 14.4543C47.1342 15.5952 47.9342 16.3398 47.9342 17.3568C47.9102 18.9186 46.0327 19.6385 44.2815 19.6385C41.8532 19.6385 40.5521 19.2674 38.5748 18.3984L37.7739 18.0259L36.9227 23.2593C38.3493 23.9034 40.9775 24.475 43.7061 24.5C50.0881 24.5 54.2429 21.3747 54.2922 16.5383C54.3164 13.8844 52.691 11.8508 49.1867 10.1891C47.0594 9.12242 45.7566 8.40315 45.7566 7.31172C45.7816 6.31951 46.8585 5.30324 49.2599 5.30324C51.2372 5.25346 52.69 5.72451 53.7906 6.1959L54.3407 6.44345L55.1679 1.40923Z" fill="white"/>
<path d="M63.252 15.8936C63.7529 14.5543 65.6803 9.37071 65.6803 9.37071C65.655 9.42049 66.1802 8.00667 66.4805 7.13873L66.9056 9.14755C66.9056 9.14755 68.0574 14.728 68.3075 15.8936C67.3569 15.8936 64.4533 15.8936 63.252 15.8936ZM70.7598 0.839355H66.0551C64.6043 0.839355 63.5021 1.26063 62.8761 2.77367L53.8417 24.1523H60.2236C60.2236 24.1523 61.2743 21.2749 61.5001 20.6552C62.2003 20.6552 68.4086 20.6552 69.3093 20.6552C69.4839 21.4737 70.035 24.1523 70.035 24.1523H75.6666L70.7598 0.839355Z" fill="white"/>
<path d="M21.9568 0.839355L16.0002 16.7368L15.3493 13.5126C14.2481 9.79232 10.7944 5.7503 6.94019 3.7405L12.3962 24.1279H18.828L28.3883 0.839355H21.9568Z" fill="white"/>
<path d="M10.4692 0.838989H0.683364L0.583252 1.31004C8.21678 3.24469 13.2723 7.90807 15.3494 13.5132L13.2221 2.79869C12.8719 1.30971 11.7956 0.888105 10.4692 0.838989Z" fill="white"/>
</svg>
