<svg width="25" height="25" viewBox="0 0 25 25" fill="none" xmlns="http://www.w3.org/2000/svg">
<g filter="url(#filter0_d_0_267)">
<path d="M8.97266 5.74219C8.89062 5.30469 8.69922 4.89453 8.37109 4.53906C7.71484 3.91016 7.35938 3.14453 7.25 2.24219C7.22266 2.13281 7.25 2.02344 7.35938 1.91406C7.44141 1.80469 7.55078 1.75 7.6875 1.75H8.15234C8.26172 1.75 8.34375 1.80469 8.42578 1.85938C8.50781 1.94141 8.5625 2.02344 8.58984 2.13281C8.64453 2.70703 8.89062 3.19922 9.30078 3.58203C9.84766 4.15625 10.2031 4.83984 10.3125 5.63281C10.3125 5.76953 10.2852 5.87891 10.2031 5.98828C10.0938 6.09766 9.98438 6.125 9.875 6.125H9.41016C9.30078 6.125 9.19141 6.09766 9.10938 6.01562C9.02734 5.96094 8.97266 5.85156 8.97266 5.74219ZM12.0352 5.74219C11.9531 5.30469 11.7617 4.89453 11.4336 4.53906C10.7773 3.91016 10.4219 3.14453 10.3125 2.24219C10.2852 2.13281 10.3125 2.02344 10.4219 1.91406C10.5039 1.80469 10.6133 1.75 10.75 1.75H11.2148C11.3242 1.75 11.4062 1.80469 11.4883 1.85938C11.5703 1.94141 11.625 2.02344 11.6523 2.13281C11.707 2.70703 11.9531 3.19922 12.3633 3.58203C12.9102 4.15625 13.2656 4.83984 13.375 5.63281C13.375 5.76953 13.3477 5.87891 13.2656 5.98828C13.1562 6.09766 13.0469 6.125 12.9375 6.125H12.4727C12.3633 6.125 12.2539 6.09766 12.1719 6.01562C12.0898 5.96094 12.0352 5.85156 12.0352 5.74219ZM16.4375 7C16.9844 7 17.4766 7.13672 17.9688 7.41016C18.4336 7.68359 18.8164 8.06641 19.0898 8.53125C19.3633 9.02344 19.5 9.51562 19.5 10.0625C19.5 10.6094 19.3633 11.1289 19.0898 11.5938C18.8164 12.0859 18.4336 12.4414 17.9688 12.7148C17.4766 12.9883 16.9844 13.125 16.4375 13.125H16C16 13.8633 15.7266 14.4922 15.2344 14.9844C14.7148 15.5039 14.0859 15.75 13.375 15.75H8.125C7.38672 15.75 6.75781 15.5039 6.26562 14.9844C5.74609 14.4922 5.5 13.8633 5.5 13.125V7.875C5.5 7.65625 5.58203 7.4375 5.74609 7.27344C5.91016 7.10938 6.12891 7 6.375 7H16.4375ZM16.4375 11.375C16.793 11.375 17.0938 11.2656 17.3672 10.9922C17.6133 10.7461 17.75 10.4453 17.75 10.0625C17.75 9.70703 17.6133 9.40625 17.3672 9.13281C17.0938 8.88672 16.793 8.75 16.4375 8.75H16V11.375H16.4375Z" fill="#DFDEDE"/>
<path d="M8.77933 1.50582L8.74433 1.47081L8.70313 1.44335C8.69925 1.44076 8.69489 1.43781 8.69007 1.43454C8.61307 1.38233 8.41791 1.25 8.15234 1.25H7.6875C7.40547 1.25 7.15704 1.36843 6.98151 1.58563C6.79113 1.78898 6.69969 2.04926 6.75674 2.32745C6.8817 3.3182 7.28019 4.18094 8.01318 4.88855C8.25979 5.15942 8.40675 5.46749 8.47483 5.80165C8.49096 6.02344 8.59686 6.25267 8.78974 6.40132C8.83323 6.44033 8.87851 6.4729 8.92457 6.5H6.375C5.97444 6.5 5.63369 6.67873 5.39254 6.91988C5.12858 7.18384 5 7.53257 5 7.875V13.125C5 13.9812 5.28921 14.743 5.91196 15.338C6.50698 15.9608 7.26877 16.25 8.125 16.25H13.375C14.2138 16.25 14.9713 15.9545 15.5879 15.3379C16.0577 14.8681 16.3615 14.2879 16.4627 13.6249C17.0915 13.6207 17.6589 13.459 18.2116 13.1519L18.2116 13.1521L18.2223 13.1458C18.749 12.8359 19.2004 12.4218 19.5239 11.842C19.8423 11.2985 20 10.6928 20 10.0625C20 9.42362 19.8381 8.8485 19.5269 8.28843L19.5271 8.28835L19.5208 8.27774C19.2043 7.73962 18.7604 7.29573 18.2223 6.97919L18.2223 6.97906L18.2116 6.97308C17.6515 6.66193 17.0764 6.5 16.4375 6.5H13.4158C13.4849 6.45969 13.5532 6.40781 13.6192 6.34183L13.6443 6.31671L13.6656 6.28828C13.8268 6.07337 13.875 5.85129 13.875 5.63281V5.59849L13.8703 5.56449C13.7452 4.65776 13.3373 3.87977 12.7254 3.2372L12.7152 3.22655L12.7044 3.2165C12.3833 2.91676 12.1932 2.5376 12.1501 2.08541L12.1465 2.048L12.1374 2.01154C12.0824 1.7914 11.9689 1.63292 11.8418 1.50582L11.8068 1.47081L11.7656 1.44335C11.7617 1.44076 11.7574 1.43781 11.7526 1.43454C11.6756 1.38233 11.4804 1.25 11.2148 1.25H10.75C10.468 1.25 10.2195 1.36843 10.044 1.58563C9.85363 1.78898 9.76219 2.04926 9.81924 2.32745C9.9442 3.3182 10.3427 4.18094 11.0757 4.88855C11.3223 5.15942 11.4692 5.46749 11.5373 5.80165C11.5535 6.02344 11.6594 6.25267 11.8522 6.40132C11.8957 6.44033 11.941 6.4729 11.9871 6.5H10.3533C10.4224 6.45969 10.4907 6.40781 10.5567 6.34183L10.5818 6.31671L10.6031 6.28828C10.7643 6.07337 10.8125 5.85129 10.8125 5.63281V5.59849L10.8078 5.56449C10.6827 4.65776 10.2748 3.87977 9.66285 3.2372L9.6527 3.22655L9.64194 3.2165C9.32078 2.91676 9.13066 2.5376 9.08759 2.08541L9.08403 2.048L9.07491 2.01154C9.01988 1.7914 8.90644 1.63292 8.77933 1.50582ZM17.0136 10.6386C16.8561 10.7962 16.7008 10.8625 16.5 10.8734V9.25229C16.6776 9.26555 16.8405 9.33708 17.013 9.48701C17.1803 9.67952 17.25 9.86007 17.25 10.0625C17.25 10.3078 17.1695 10.4828 17.0136 10.6386Z" stroke="black"/>
</g>
<defs>
<filter id="filter0_d_0_267" x="0.5" y="0.75" width="24" height="24" filterUnits="userSpaceOnUse" color-interpolation-filters="sRGB">
<feFlood flood-opacity="0" result="BackgroundImageFix"/>
<feColorMatrix in="SourceAlpha" type="matrix" values="0 0 0 0 0 0 0 0 0 0 0 0 0 0 0 0 0 0 127 0" result="hardAlpha"/>
<feOffset dy="4"/>
<feGaussianBlur stdDeviation="2"/>
<feComposite in2="hardAlpha" operator="out"/>
<feColorMatrix type="matrix" values="0 0 0 0 0 0 0 0 0 0 0 0 0 0 0 0 0 0 0.25 0"/>
<feBlend mode="normal" in2="BackgroundImageFix" result="effect1_dropShadow_0_267"/>
<feBlend mode="normal" in="SourceGraphic" in2="effect1_dropShadow_0_267" result="shape"/>
</filter>
</defs>
</svg>
