<svg width="16" height="17" viewBox="0 0 16 17" fill="none" xmlns="http://www.w3.org/2000/svg">
<path d="M15.875 2.0625C15.875 1.60547 15.6992 1.21875 15.3828 0.867188C15.0312 0.550781 14.6445 0.375 14.1875 0.375H1.8125C1.32031 0.375 0.933594 0.550781 0.617188 0.867188C0.265625 1.21875 0.125 1.60547 0.125 2.0625V14.4375C0.125 14.9297 0.265625 15.3164 0.617188 15.6328C0.933594 15.9844 1.32031 16.125 1.8125 16.125H14.1875C14.6445 16.125 15.0312 15.9844 15.3828 15.6328C15.6992 15.3164 15.875 14.9297 15.875 14.4375V2.0625ZM11.9375 3.75C12.0781 3.75 12.2188 3.82031 12.3242 3.92578C12.4297 4.03125 12.5 4.17188 12.5 4.3125V12.1875C12.5 12.3633 12.4297 12.5039 12.3242 12.6094C12.2188 12.7148 12.0781 12.75 11.9375 12.75H10.8125C10.6367 12.75 10.4961 12.7148 10.3906 12.6094C10.2852 12.5039 10.25 12.3633 10.25 12.1875V9.375H5.75V12.1875C5.75 12.3633 5.67969 12.5039 5.57422 12.6094C5.46875 12.7148 5.32812 12.75 5.1875 12.75H4.0625C3.88672 12.75 3.74609 12.7148 3.64062 12.6094C3.53516 12.5039 3.5 12.3633 3.5 12.1875V4.3125C3.5 4.17188 3.53516 4.03125 3.64062 3.92578C3.74609 3.82031 3.88672 3.75 4.0625 3.75H5.1875C5.32812 3.75 5.46875 3.82031 5.57422 3.92578C5.67969 4.03125 5.75 4.17188 5.75 4.3125V7.125H10.25V4.3125C10.25 4.17188 10.2852 4.03125 10.3906 3.92578C10.4961 3.82031 10.6367 3.75 10.8125 3.75H11.9375Z" fill="white"/>
</svg>
