<svg width="13" height="19" viewBox="0 0 13 19" fill="none" xmlns="http://www.w3.org/2000/svg">
<path d="M9.38281 3.13281C9.05469 3.46094 8.65625 3.625 8.1875 3.625C7.71875 3.625 7.32031 3.46094 6.99219 3.13281C6.66406 2.80469 6.5 2.40625 6.5 1.9375C6.5 1.46875 6.66406 1.07031 6.99219 0.742188C7.32031 0.414063 7.71875 0.25 8.1875 0.25C8.65625 0.25 9.05469 0.414063 9.38281 0.742188C9.71094 1.07031 9.875 1.46875 9.875 1.9375C9.875 2.40625 9.71094 2.80469 9.38281 3.13281ZM11.4922 8.86328C11.7734 9.00391 11.9609 9.22656 12.0547 9.53125C12.1719 9.8125 12.1602 10.0938 12.0195 10.375C11.8789 10.6562 11.6562 10.8438 11.3516 10.9375C11.0703 11.0312 10.7891 11.0078 10.5078 10.8672L9.69922 10.4805C9.16016 10.1992 8.78516 9.76562 8.57422 9.17969L8.39844 8.58203L7.80078 11.0078L9.38281 12.7656C9.64062 13.0234 9.81641 13.3398 9.91016 13.7148L10.6836 16.8438C10.7539 17.1484 10.707 17.4297 10.543 17.6875C10.4023 17.9688 10.1797 18.1445 9.875 18.2148C9.57031 18.2852 9.27734 18.2383 8.99609 18.0742C8.73828 17.9336 8.57422 17.7109 8.50391 17.4062L7.87109 14.8047C7.77734 14.4531 7.60156 14.1367 7.34375 13.8555L5.23438 11.5352C4.69531 10.9492 4.51953 10.2578 4.70703 9.46094L5.23438 7.35156L4.32031 7.73828C4.03906 7.83203 3.83984 8.00781 3.72266 8.26562L3.47656 8.75781C3.33594 9.01562 3.125 9.20312 2.84375 9.32031C2.5625 9.41406 2.28125 9.39062 2 9.25C1.71875 9.10938 1.53125 8.89844 1.4375 8.61719C1.34375 8.3125 1.36719 8.01953 1.50781 7.73828L1.71875 7.24609C2.09375 6.49609 2.67969 5.95703 3.47656 5.62891C3.57031 5.60547 3.73438 5.54688 3.96875 5.45312C4.22656 5.33594 4.39062 5.26563 4.46094 5.24219C4.55469 5.19531 4.69531 5.13672 4.88281 5.06641C5.09375 4.99609 5.24609 4.94922 5.33984 4.92578C5.45703 4.90234 5.59766 4.87891 5.76172 4.85547C5.92578 4.80859 6.08984 4.78516 6.25391 4.78516C6.41797 4.76172 6.58203 4.75 6.74609 4.75C7.56641 4.75 8.30469 4.99609 8.96094 5.48828C9.61719 5.98047 10.0859 6.625 10.3672 7.42188L10.6836 8.44141L11.4922 8.86328ZM3.47656 13.8203L4.17969 11.9922C4.36719 12.2266 4.92969 12.8594 5.86719 13.8906L5.375 15.0859C5.25781 15.3672 5.09375 15.6133 4.88281 15.8242L2.80859 17.9336C2.57422 18.1445 2.30469 18.25 2 18.25C1.69531 18.25 1.42578 18.1328 1.19141 17.8984C0.980469 17.6875 0.875 17.4297 0.875 17.125C0.875 16.8203 0.980469 16.5508 1.19141 16.3164L2.94922 14.5586C3.18359 14.3477 3.35938 14.1016 3.47656 13.8203Z" fill="url(#paint0_linear_40_771)"/>
<defs>
<linearGradient id="paint0_linear_40_771" x1="1.2855" y1="-0.999989" x2="14.1233" y2="-0.684935" gradientUnits="userSpaceOnUse">
<stop stop-color="#FF6161"/>
<stop offset="1" stop-color="#FF61DC"/>
</linearGradient>
</defs>
</svg>
