<svg width="24" height="24" viewBox="0 0 24 24" fill="none" xmlns="http://www.w3.org/2000/svg">
<path d="M23.6719 20.7657C23.8594 21.0001 24 21.2813 24 21.5626C24 21.8907 23.8594 22.1719 23.6719 22.3594L22.3594 23.6719C22.125 23.9063 21.8438 24.0001 21.5625 24.0001C21.2344 24.0001 20.9531 23.9063 20.7656 23.6719L16.0781 18.9844C15.8438 18.7969 15.75 18.5157 15.75 18.1876V17.4376C13.9688 18.8438 12 19.5001 9.75 19.5001C7.96875 19.5001 6.32812 19.0782 4.82812 18.1876C3.32812 17.3438 2.15625 16.1719 1.3125 14.6719C0.421875 13.1719 0 11.5313 0 9.75006C0 7.96881 0.421875 6.37506 1.3125 4.87506C2.15625 3.37506 3.32812 2.20319 4.82812 1.31256C6.32812 0.468811 7.96875 6.10352e-05 9.75 6.10352e-05C11.5312 6.10352e-05 13.125 0.468811 14.625 1.31256C16.125 2.20319 17.2969 3.37506 18.1875 4.87506C19.0312 6.37506 19.5 7.96881 19.5 9.75006C19.5 12.0001 18.7969 14.0157 17.4375 15.7501H18.1875C18.4688 15.7501 18.75 15.8907 18.9844 16.0782L23.6719 20.7657ZM9.75 15.7501C10.8281 15.7501 11.8125 15.5157 12.75 14.9532C13.6875 14.4376 14.3906 13.7344 14.9531 12.7969C15.4688 11.8594 15.75 10.8751 15.75 9.75006C15.75 8.67194 15.4688 7.68756 14.9531 6.75006C14.3906 5.81256 13.6875 5.10944 12.75 4.54694C11.8125 4.03131 10.8281 3.75006 9.75 3.75006C8.625 3.75006 7.64062 4.03131 6.70312 4.54694C5.76562 5.10944 5.0625 5.81256 4.54688 6.75006C3.98438 7.68756 3.75 8.67194 3.75 9.75006C3.75 10.8751 3.98438 11.8594 4.54688 12.7969C5.0625 13.7344 5.76562 14.4376 6.70312 14.9532C7.64062 15.5157 8.625 15.7501 9.75 15.7501Z" fill="#BDBDBD"/>
</svg>
