<svg width="22" height="24" viewBox="0 0 22 24" fill="none" xmlns="http://www.w3.org/2000/svg">
<path d="M11 24.0001C10.1562 24.0001 9.45312 23.7188 8.89062 23.1563C8.28125 22.5938 8 21.8438 8 21.0001H14C14 21.8438 13.6719 22.5938 13.1094 23.1563C12.5 23.7188 11.7969 24.0001 11 24.0001ZM21.0781 16.9688C21.3594 17.2969 21.5 17.6719 21.5 18.0469C21.5 18.4219 21.3594 18.7969 21.0781 19.0782C20.7969 19.3594 20.4219 19.5001 20 19.5001H2C1.53125 19.5001 1.20312 19.3594 0.921875 19.0782C0.640625 18.7969 0.5 18.4219 0.5 18.0469C0.5 17.6719 0.640625 17.2969 0.921875 16.9688L1.0625 16.7813C1.76562 16.0313 2.28125 15.3282 2.65625 14.5782C3.21875 13.3594 3.5 11.7188 3.5 9.75006C3.5 7.96881 4.0625 6.37506 5.1875 5.01569C6.3125 3.70319 7.71875 2.85944 9.5 2.48444V1.50006C9.5 1.12506 9.64062 0.750061 9.92188 0.468811C10.2031 0.187561 10.5781 6.10352e-05 11 6.10352e-05C11.375 6.10352e-05 11.75 0.187561 12.0312 0.468811C12.3125 0.750061 12.5 1.12506 12.5 1.50006V2.48444C14.2344 2.85944 15.6875 3.70319 16.8125 5.01569C17.9375 6.37506 18.5 7.96881 18.5 9.75006C18.5 11.7188 18.7812 13.3594 19.3438 14.5782C19.6719 15.3282 20.1875 16.0313 20.9375 16.7813C20.9844 16.8751 21.0312 16.9688 21.0781 16.9688Z" fill="#BDBDBD"/>
</svg>
