<svg width="22" height="24" viewBox="0 0 22 24" fill="none" xmlns="http://www.w3.org/2000/svg">
<path d="M11 12.0001C9.875 12.0001 8.89062 11.7657 7.95312 11.2032C7.01562 10.6876 6.3125 9.98444 5.79688 9.04694C5.23438 8.10944 5 7.12506 5 6.00006C5 4.92194 5.23438 3.93756 5.79688 3.00006C6.3125 2.06256 7.01562 1.35944 7.95312 0.796936C8.89062 0.281311 9.875 6.10352e-05 11 6.10352e-05C12.0781 6.10352e-05 13.0625 0.281311 14 0.796936C14.9375 1.35944 15.6406 2.06256 16.2031 3.00006C16.7188 3.93756 17 4.92194 17 6.00006C17 7.12506 16.7188 8.10944 16.2031 9.04694C15.6406 9.98444 14.9375 10.6876 14 11.2032C13.0625 11.7657 12.0781 12.0001 11 12.0001ZM15.2188 13.5001C16.3438 13.5001 17.375 13.7813 18.3594 14.3438C19.2969 14.9063 20.0938 15.7032 20.6562 16.6407C21.2188 17.6251 21.5 18.6563 21.5 19.7813V21.7501C21.5 22.4063 21.2656 22.9219 20.8438 23.3438C20.375 23.8126 19.8594 24.0001 19.25 24.0001H2.75C2.09375 24.0001 1.57812 23.8126 1.15625 23.3438C0.6875 22.9219 0.5 22.4063 0.5 21.7501V19.7813C0.5 18.6563 0.78125 17.6251 1.34375 16.6407C1.90625 15.7032 2.65625 14.9063 3.64062 14.3438C4.57812 13.7813 5.65625 13.5001 6.78125 13.5001H7.57812C8.65625 14.0157 9.78125 14.2501 11 14.2501C12.1719 14.2501 13.2969 14.0157 14.4219 13.5001H15.2188Z" fill="#BDBDBD"/>
</svg>
