<svg width="27" height="22" viewBox="0 0 27 22" fill="none" xmlns="http://www.w3.org/2000/svg">
<path d="M22.8752 13.6719C22.8752 13.4844 22.7815 13.3438 22.6877 13.2032L13.8752 5.98444C13.7346 5.89069 13.594 5.84381 13.5002 5.84381C13.3596 5.84381 13.219 5.89069 13.1252 5.98444L4.31274 13.2032C4.17212 13.3438 4.12524 13.4844 4.12524 13.6719V20.3751C4.12524 20.7032 4.21899 20.9844 4.45337 21.1719C4.64087 21.4063 4.92212 21.5001 5.25024 21.5001H10.6877C10.8284 21.5001 10.969 21.4532 11.0627 21.3594C11.1565 21.2657 11.2502 21.1251 11.2502 20.9376V15.6876C11.2502 15.5469 11.2971 15.4063 11.3909 15.3126C11.4846 15.2188 11.6252 15.1251 11.8127 15.1251H15.1877C15.3284 15.1251 15.469 15.2188 15.5627 15.3126C15.6565 15.4063 15.7502 15.5469 15.7502 15.6876V20.9376C15.7502 21.1251 15.7971 21.2657 15.8909 21.3594C15.9846 21.4532 16.1252 21.5001 16.3127 21.5001H21.7502C22.0315 21.5001 22.3127 21.4063 22.5471 21.1719C22.7346 20.9844 22.8752 20.7032 22.8752 20.3751V13.6719ZM26.8127 10.8126C26.9065 10.9063 26.9534 11.0469 26.9534 11.1876C26.9534 11.3751 26.9534 11.5157 26.8596 11.6094L25.6877 13.0626C25.594 13.2032 25.4534 13.2501 25.3127 13.2501C25.1252 13.2501 24.9846 13.2032 24.8909 13.1094L13.8752 4.06256C13.7346 3.96881 13.594 3.92194 13.5002 3.92194C13.3596 3.92194 13.219 3.96881 13.1252 4.06256L2.10962 13.1094C1.96899 13.2032 1.82837 13.2501 1.68774 13.2501C1.50024 13.2501 1.40649 13.2032 1.31274 13.0626L0.140869 11.6094C0.0471191 11.5157 0.000244141 11.3751 0.000244141 11.1876C0.000244141 11.0469 0.0939941 10.9063 0.187744 10.8126L12.094 1.01569C12.469 0.687561 12.9377 0.500061 13.5002 0.500061C14.0159 0.500061 14.4846 0.687561 14.9534 1.01569L19.1252 4.48444V1.06256C19.1252 0.921936 19.1721 0.781311 19.2659 0.687561C19.3596 0.593811 19.5002 0.500061 19.6877 0.500061H22.3127C22.4534 0.500061 22.594 0.593811 22.6877 0.687561C22.7815 0.781311 22.8752 0.921936 22.8752 1.06256V7.57819L26.8127 10.8126Z" fill="url(#paint0_linear_100_693)"/>
<defs>
<linearGradient id="paint0_linear_100_693" x1="4.10701" y1="0.500072" x2="27.1439" y2="1.51594" gradientUnits="userSpaceOnUse">
<stop stop-color="#FF6161"/>
<stop offset="1" stop-color="#FF61DC"/>
</linearGradient>
</defs>
</svg>
